<svg xmlns="http://www.w3.org/2000/svg" xmlns:xlink="http://www.w3.org/1999/xlink" version="1.1" x="0px" y="0px" viewBox="0 0 100 125" enable-background="new 0 0 100 100" xml:space="preserve">
<circle cx="54" cy="50" r="30" fill="white" />
<path fill="#e87d0d" d="M31.192,52.908c-1.653-10.776,4.354-21.62,14.955-25.668c12.208-4.661,25.884,1.456,30.545,13.666  c4.662,12.208-1.456,25.884-13.665,30.546c-5.814,2.22-11.961,1.993-17.309-0.171L32.49,81.99l-0.251,0.774  c-0.342,0.768,0.001,1.669,0.77,2.013l9.548,4.271c0.767,0.345,1.667,0,2.012-0.77l4.729-8.109c2.888,0.498,5.866,0.598,8.852,0.254  l4.268,8.355c0.3,0.786,1.18,1.181,1.966,0.88l9.771-3.731c0.785-0.3,1.18-1.18,0.879-1.965l-2.389-9.073  c2.456-1.733,4.609-3.794,6.431-6.09l8.932,2.894c0.769,0.344,1.669,0,2.014-0.768l4.27-9.547c0.343-0.768-0.001-1.669-0.768-2.013  l-8.112-4.73c0.498-2.888,0.599-5.866,0.255-8.853l8.355-4.265c0.786-0.301,1.181-1.18,0.879-1.967l-3.729-9.77  c-0.3-0.786-1.181-1.182-1.966-0.879l-9.072,2.387c-1.734-2.454-3.795-4.609-6.091-6.43l2.895-8.933  c0.344-0.767-0.001-1.668-0.769-2.013l-9.548-4.27c-0.767-0.345-1.668,0-2.012,0.77l-4.73,8.109  c-2.887-0.498-5.865-0.599-8.851-0.255l-4.268-8.355c-0.301-0.785-1.18-1.18-1.966-0.88l-9.771,3.731  c-0.786,0.3-1.18,1.181-0.88,1.966l2.389,9.073c-2.456,1.733-4.608,3.793-6.43,6.089l-8.933-2.894  C20.399,26.655,19.5,27,19.157,27.767l-4.272,9.548c-0.342,0.768,0.002,1.669,0.768,2.013l8.112,4.729  c-0.497,2.889-0.599,5.865-0.254,8.853l-8.355,4.265c-0.786,0.302-1.181,1.181-0.879,1.967l2.177,5.701L31.192,52.908z"/>
<path fill="#265787" d="M65.609,63.949c5.823-4.715,8.042-12.231,6.29-19.042L58.787,55.522l-9.688-11.967L62.211,32.94  c-6.298-3.133-14.11-2.525-19.935,2.189c-5.822,4.714-8.041,12.229-6.29,19.041L5.854,78.566c-0.988,0.801-1.141,2.251-0.34,3.24  l6.805,8.405c0.801,0.99,2.252,1.143,3.241,0.343L45.702,66.15C51.995,69.268,59.794,68.656,65.609,63.949z"/>
<text x="0" y="115" fill="#000000" font-size="5px" font-weight="bold" font-family="'Helvetica Neue', Helvetica, Arial-Unicode, Arial, Sans-serif">Created by Mert Güler</text>
<text x="0" y="120" fill="#000000" font-size="5px" font-weight="bold" font-family="'Helvetica Neue', Helvetica, Arial-Unicode, Arial, Sans-serif">from the Noun Project</text>
</svg>