# Blender v2.77 (sub 0) OBJ File: 'alienShip.blend'
# www.blender.org
mtllib projectile.mtl
o OilTank001
v 0.002469 0.004938 0.000000
v 0.034964 0.004938 -0.013364
v 0.018717 0.033080 -0.013364
v -0.013779 0.033080 -0.013364
v -0.030026 0.004938 -0.013364
v -0.013779 -0.023203 -0.013364
v 0.018717 -0.023203 -0.013364
v 0.048655 0.004938 -0.045724
v 0.025562 0.044936 -0.045724
v -0.020624 0.044936 -0.045724
v -0.043716 0.004938 -0.045724
v -0.020624 -0.035060 -0.045724
v 0.025562 -0.035060 -0.045724
v 0.048655 0.004938 -0.992799
v 0.025562 0.044936 -0.992799
v -0.020624 0.044936 -0.992799
v -0.043716 0.004938 -0.992799
v -0.020624 -0.035060 -0.992799
v 0.025562 -0.035060 -0.992799
v 0.034964 0.004938 -1.025158
v 0.018717 0.033080 -1.025158
v -0.013779 0.033080 -1.025158
v -0.030026 0.004938 -1.025158
v -0.013779 -0.023203 -1.025158
v 0.018717 -0.023203 -1.025158
v 0.002469 0.004938 -1.038523
vt 0.5000 0.5000
vt 0.8518 0.5000
vt 0.6759 0.8047
vt 0.3241 0.8047
vt 0.1482 0.5000
vt 0.3241 0.1953
vt 0.6759 0.1953
vt 1.0000 0.5000
vt 0.7500 0.9330
vt 0.2500 0.9330
vt 0.0000 0.5000
vt 0.2500 0.0670
vt 0.7500 0.0670
vt 0.0000 1.0000
vt 0.0000 0.0000
vt 0.1667 0.0000
vt 0.1667 1.0000
vt 0.3333 0.0000
vt 0.3333 1.0000
vt 0.5000 0.0000
vt 0.5000 1.0000
vt 0.6667 0.0000
vt 0.6667 1.0000
vt 0.8333 0.0000
vt 0.8333 1.0000
vt 1.0000 0.0000
vt 1.0000 1.0000
vt 1.0000 0.5000
vt 0.8518 0.5000
vt 0.6759 0.8047
vt 0.7500 0.9330
vt 0.3241 0.8047
vt 0.2500 0.9330
vt 0.1482 0.5000
vt 0.0000 0.5000
vt 0.3241 0.1953
vt 0.2500 0.0670
vt 0.6759 0.1953
vt 0.7500 0.0670
vt 0.5000 0.5000
vn -0.0000 -0.0000 1.0000
vn 0.7564 -0.0000 0.6541
vn 0.3782 0.6551 0.6541
vn -0.3782 0.6551 0.6541
vn -0.7564 -0.0000 0.6541
vn -0.3782 -0.6551 0.6541
vn 0.3782 -0.6551 0.6541
vn 0.9210 -0.0000 0.3896
vn 0.4605 0.7976 0.3896
vn -0.4605 0.7976 0.3896
vn -0.9210 -0.0000 0.3896
vn -0.4605 -0.7976 0.3896
vn 0.4605 -0.7976 0.3896
vn 1.0000 0.0000 0.0000
vn 0.5000 0.8660 0.0000
vn -0.5000 0.8660 0.0000
vn -1.0000 0.0000 -0.0000
vn -0.5000 -0.8660 -0.0000
vn 0.5000 -0.8660 -0.0000
vn 0.9210 -0.0000 -0.3896
vn 0.7564 -0.0000 -0.6541
vn 0.3782 0.6551 -0.6541
vn 0.4605 0.7976 -0.3896
vn -0.3782 0.6551 -0.6541
vn -0.4605 0.7976 -0.3896
vn -0.7564 -0.0000 -0.6541
vn -0.9210 -0.0000 -0.3896
vn -0.3782 -0.6551 -0.6541
vn -0.4605 -0.7976 -0.3897
vn 0.3782 -0.6551 -0.6541
vn 0.4605 -0.7976 -0.3897
vn -0.0000 -0.0000 -1.0000
usemtl wire_225198087
s 1
f 1/1/1 2/2/2 3/3/3
f 1/1/1 3/3/3 4/4/4
f 1/1/1 4/4/4 5/5/5
f 1/1/1 5/5/5 6/6/6
f 1/1/1 6/6/6 7/7/7
f 1/1/1 7/7/7 2/2/2
f 2/2/2 8/8/8 9/9/9 3/3/3
f 3/3/3 9/9/9 10/10/10 4/4/4
f 4/4/4 10/10/10 11/11/11 5/5/5
f 5/5/5 11/11/11 12/12/12 6/6/6
f 6/6/6 12/12/12 13/13/13 7/7/7
f 7/7/7 13/13/13 8/8/8 2/2/2
f 8/14/14 14/15/14 15/16/15 9/17/15
f 9/17/15 15/16/15 16/18/16 10/19/16
f 10/19/16 16/18/16 17/20/17 11/21/17
f 11/21/17 17/20/17 18/22/18 12/23/18
f 12/23/18 18/22/18 19/24/19 13/25/19
f 13/25/19 19/24/19 14/26/14 8/27/14
f 14/28/20 20/29/21 21/30/22 15/31/23
f 15/31/23 21/30/22 22/32/24 16/33/25
f 16/33/25 22/32/24 23/34/26 17/35/27
f 17/35/27 23/34/26 24/36/28 18/37/29
f 18/37/29 24/36/28 25/38/30 19/39/31
f 19/39/31 25/38/30 20/29/21 14/28/20
f 20/29/21 26/40/32 21/30/22
f 21/30/22 26/40/32 22/32/24
f 22/32/24 26/40/32 23/34/26
f 23/34/26 26/40/32 24/36/28
f 24/36/28 26/40/32 25/38/30
f 25/38/30 26/40/32 20/29/21
